{"scene":0,"asset":{"generator":"FabConvert.com","version":"2.0"},"scenes":[{"name":"Scene","nodes":[0]}],"nodes":[{"name":"Node0","children":[1,2,3,4,5,6,7,8,9,10,11,12,13,14,15,16,17,18,19,20,21,22,23,24,25]},{"name":"Node1","mesh":0},{"name":"Node2","mesh":1},{"name":"Node3","mesh":2},{"name":"Node4","mesh":3},{"name":"Node5","mesh":4},{"name":"Node6","mesh":5},{"name":"Node7","mesh":6},{"name":"Node8","mesh":7},{"name":"Node9","mesh":8},{"name":"Node10","mesh":9},{"name":"Node11","mesh":10},{"name":"Node12","mesh":11},{"name":"Node13","mesh":12},{"name":"Node14","mesh":13},{"name":"Node15","mesh":14},{"name":"Node16","mesh":15},{"name":"Node17","mesh":16},{"name":"Node18","mesh":17},{"name":"Node19","mesh":18},{"name":"Node20","mesh":19},{"name":"Node21","mesh":20},{"name":"Node22","mesh":21},{"name":"Node23","mesh":22},{"name":"Node24","mesh":23},{"name":"Node25","mesh":24}],"materials":[{"name":"#D5BDA4FF","pbrMetallicRoughness":{"baseColorFactor":[0.8352941,0.7411765,0.6431373,1.0],"metallicFactor":0.0,"roughnessFactor":1.0},"doubleSided":true},{"name":"#936947FF","pbrMetallicRoughness":{"baseColorFactor":[0.5764706,0.4117647,0.2784314,1.0],"metallicFactor":0.0,"roughnessFactor":1.0},"doubleSided":true},{"name":"#CCCCCCCC","pbrMetallicRoughness":{"baseColorFactor":[0.8,0.8,0.8,0.8],"metallicFactor":0.0,"roughnessFactor":1.0},"alphaMode":"BLEND","doubleSided":true},{"name":"#6495ED80","pbrMetallicRoughness":{"baseColorFactor":[0.39215687,0.58431375,0.92941177,0.5019608],"metallicFactor":0.0,"roughnessFactor":1.0},"alphaMode":"BLEND","doubleSided":true},{"name":"#D3BB95FF","pbrMetallicRoughness":{"baseColorFactor":[0.827451,0.73333335,0.58431375,1.0],"metallicFactor":0.0,"roughnessFactor":1.0},"doubleSided":true},{"name":"#8A4024FF","pbrMetallicRoughness":{"baseColorFactor":[0.5411765,0.2509804,0.14117648,1.0],"metallicFactor":0.0,"roughnessFactor":1.0},"doubleSided":true},{"name":"#D9C9A9FF","pbrMetallicRoughness":{"baseColorFactor":[0.8509804,0.7882353,0.6627451,1.0],"metallicFactor":0.0,"roughnessFactor":1.0},"doubleSided":true}],"meshes":[{"name":"Mesh0","primitives":[{"indices":1,"material":0,"attributes":{"POSITION":0}}]},{"name":"Mesh0","primitives":[{"indices":3,"material":0,"attributes":{"POSITION":2}}]},{"name":"Mesh0","primitives":[{"indices":5,"material":1,"attributes":{"POSITION":4}}]},{"name":"Mesh0","primitives":[{"indices":7,"material":2,"attributes":{"POSITION":6}}]},{"name":"Mesh0","primitives":[{"indices":9,"material":2,"attributes":{"POSITION":8}}]},{"name":"Mesh0","primitives":[{"indices":11,"material":3,"attributes":{"POSITION":10}}]},{"name":"Mesh0","primitives":[{"indices":13,"material":3,"attributes":{"POSITION":12}}]},{"name":"Mesh0","primitives":[{"indices":15,"material":4,"attributes":{"POSITION":14}}]},{"name":"Mesh0","primitives":[{"indices":17,"material":4,"attributes":{"POSITION":16}}]},{"name":"Mesh0","primitives":[{"indices":19,"material":0,"attributes":{"POSITION":18}}]},{"name":"Mesh0","primitives":[{"indices":21,"material":1,"attributes":{"POSITION":20}}]},{"name":"Mesh0","primitives":[{"indices":23,"material":1,"attributes":{"POSITION":22}}]},{"name":"Mesh0","primitives":[{"indices":25,"material":5,"attributes":{"POSITION":24}}]},{"name":"Mesh0","primitives":[{"indices":27,"material":1,"attributes":{"POSITION":26}}]},{"name":"Mesh0","primitives":[{"indices":29,"material":5,"attributes":{"POSITION":28}}]},{"name":"Mesh0","primitives":[{"indices":31,"material":5,"attributes":{"POSITION":30}}]},{"name":"Mesh0","primitives":[{"indices":33,"material":5,"attributes":{"POSITION":32}}]},{"name":"Mesh0","primitives":[{"indices":35,"material":5,"attributes":{"POSITION":34}}]},{"name":"Mesh0","primitives":[{"indices":37,"material":5,"attributes":{"POSITION":36}}]},{"name":"Mesh0","primitives":[{"indices":39,"material":0,"attributes":{"POSITION":38}}]},{"name":"Mesh0","primitives":[{"indices":41,"material":0,"attributes":{"POSITION":40}}]},{"name":"Mesh0","primitives":[{"indices":43,"material":0,"attributes":{"POSITION":42}}]},{"name":"Mesh0","primitives":[{"indices":45,"material":0,"attributes":{"POSITION":44}}]},{"name":"Mesh0","primitives":[{"indices":47,"material":6,"attributes":{"POSITION":46}}]},{"name":"Mesh0","primitives":[{"indices":49,"material":6,"attributes":{"POSITION":48}}]}],"accessors":[{"bufferView":0,"componentType":5126,"count":4,"type":"VEC3","min":[11.811024,0.0,0.39370078],"max":[11.811024,106.29921,114.173225]},{"bufferView":1,"componentType":5123,"count":6,"type":"SCALAR"},{"bufferView":2,"componentType":5126,"count":5,"type":"VEC3","min":[49.212597,106.29921,78.74016],"max":[108.267715,118.11024,78.74016]},{"bufferView":3,"componentType":5123,"count":9,"type":"SCALAR"},{"bufferView":4,"componentType":5126,"count":6,"type":"VEC3","min":[0.0,0.0,0.0],"max":[157.48032,118.11024,0.0]},{"bufferView":5,"componentType":5123,"count":12,"type":"SCALAR"},{"bufferView":6,"componentType":5126,"count":8,"type":"VEC3","min":[78.74016,118.11024,0.39370078],"max":[108.267715,118.11024,78.74016]},{"bufferView":7,"componentType":5123,"count":24,"type":"SCALAR"},{"bufferView":8,"componentType":5126,"count":8,"type":"VEC3","min":[49.212597,118.11024,0.39370078],"max":[78.74016,118.11024,78.74016]},{"bufferView":9,"componentType":5123,"count":24,"type":"SCALAR"},{"bufferView":10,"componentType":5126,"count":4,"type":"VEC3","min":[82.67716,118.11024,3.937008],"max":[104.33071,118.11024,74.80315]},{"bufferView":11,"componentType":5123,"count":6,"type":"SCALAR"},{"bufferView":12,"componentType":5126,"count":4,"type":"VEC3","min":[53.149605,118.11024,3.937008],"max":[74.80315,118.11024,74.80315]},{"bufferView":13,"componentType":5123,"count":6,"type":"SCALAR"},{"bufferView":14,"componentType":5126,"count":5,"type":"VEC3","min":[0.0,0.0,0.0],"max":[11.811024,0.0,114.173225]},{"bufferView":15,"componentType":5123,"count":9,"type":"SCALAR"},{"bufferView":16,"componentType":5126,"count":5,"type":"VEC3","min":[145.6693,0.0,0.0],"max":[157.48032,0.0,114.173225]},{"bufferView":17,"componentType":5123,"count":9,"type":"SCALAR"},{"bufferView":18,"componentType":5126,"count":4,"type":"VEC3","min":[11.811024,0.0,94.48819],"max":[145.6693,106.29921,114.173225]},{"bufferView":19,"componentType":5123,"count":6,"type":"SCALAR"},{"bufferView":20,"componentType":5126,"count":4,"type":"VEC3","min":[157.48032,0.0,0.0],"max":[157.48032,118.11024,114.173225]},{"bufferView":21,"componentType":5123,"count":6,"type":"SCALAR"},{"bufferView":22,"componentType":5126,"count":10,"type":"VEC3","min":[0.0,118.11024,0.0],"max":[157.48032,118.11024,94.48819]},{"bufferView":23,"componentType":5123,"count":30,"type":"SCALAR"},{"bufferView":24,"componentType":5126,"count":8,"type":"VEC3","min":[-11.811024,0.0,92.54647],"max":[169.29134,129.76056,114.173225]},{"bufferView":25,"componentType":5123,"count":18,"type":"SCALAR"},{"bufferView":26,"componentType":5126,"count":4,"type":"VEC3","min":[0.0,0.0,0.0],"max":[0.0,118.11024,114.173225]},{"bufferView":27,"componentType":5123,"count":6,"type":"SCALAR"},{"bufferView":28,"componentType":5126,"count":4,"type":"VEC3","min":[-11.811024,0.6472401,96.42991],"max":[169.29134,130.40779,118.05667]},{"bufferView":29,"componentType":5123,"count":6,"type":"SCALAR"},{"bufferView":30,"componentType":5126,"count":4,"type":"VEC3","min":[-11.811024,0.0,92.54647],"max":[-11.811024,130.40779,118.05667]},{"bufferView":31,"componentType":5123,"count":6,"type":"SCALAR"},{"bufferView":32,"componentType":5126,"count":8,"type":"VEC3","min":[-11.811024,0.0,114.173225],"max":[169.29134,0.6472401,118.05667]},{"bufferView":33,"componentType":5123,"count":18,"type":"SCALAR"},{"bufferView":34,"componentType":5126,"count":4,"type":"VEC3","min":[169.29134,0.0,92.54647],"max":[169.29134,130.40779,118.05667]},{"bufferView":35,"componentType":5123,"count":6,"type":"SCALAR"},{"bufferView":36,"componentType":5126,"count":4,"type":"VEC3","min":[-11.811024,129.76056,92.54647],"max":[169.29134,130.40779,96.42991]},{"bufferView":37,"componentType":5123,"count":6,"type":"SCALAR"},{"bufferView":38,"componentType":5126,"count":4,"type":"VEC3","min":[49.212597,106.29921,0.39370078],"max":[49.212597,118.11024,78.74016]},{"bufferView":39,"componentType":5123,"count":6,"type":"SCALAR"},{"bufferView":40,"componentType":5126,"count":4,"type":"VEC3","min":[108.267715,106.29921,0.39370078],"max":[108.267715,118.11024,78.74016]},{"bufferView":41,"componentType":5123,"count":6,"type":"SCALAR"},{"bufferView":42,"componentType":5126,"count":8,"type":"VEC3","min":[11.811024,106.29921,0.39370078],"max":[145.6693,106.29921,94.48819]},{"bufferView":43,"componentType":5123,"count":18,"type":"SCALAR"},{"bufferView":44,"componentType":5126,"count":4,"type":"VEC3","min":[145.6693,0.0,0.39370078],"max":[145.6693,106.29921,114.173225]},{"bufferView":45,"componentType":5123,"count":6,"type":"SCALAR"},{"bufferView":46,"componentType":5126,"count":9,"type":"VEC3","min":[11.811024,0.0,0.39370078],"max":[145.6693,118.11024,0.39370078]},{"bufferView":47,"componentType":5123,"count":21,"type":"SCALAR"},{"bufferView":48,"componentType":5126,"count":4,"type":"VEC3","min":[11.811024,0.0,0.0],"max":[145.6693,0.0,0.39370078]},{"bufferView":49,"componentType":5123,"count":6,"type":"SCALAR"}],"bufferViews":[{"target":34962,"buffer":0,"byteLength":48,"byteOffset":0},{"target":34963,"buffer":0,"byteLength":12,"byteOffset":48},{"target":34962,"buffer":0,"byteLength":60,"byteOffset":60},{"target":34963,"buffer":0,"byteLength":18,"byteOffset":120},{"target":34962,"buffer":0,"byteLength":72,"byteOffset":140},{"target":34963,"buffer":0,"byteLength":24,"byteOffset":212},{"target":34962,"buffer":0,"byteLength":96,"byteOffset":236},{"target":34963,"buffer":0,"byteLength":48,"byteOffset":332},{"target":34962,"buffer":0,"byteLength":96,"byteOffset":380},{"target":34963,"buffer":0,"byteLength":48,"byteOffset":476},{"target":34962,"buffer":0,"byteLength":48,"byteOffset":524},{"target":34963,"buffer":0,"byteLength":12,"byteOffset":572},{"target":34962,"buffer":0,"byteLength":48,"byteOffset":584},{"target":34963,"buffer":0,"byteLength":12,"byteOffset":632},{"target":34962,"buffer":0,"byteLength":60,"byteOffset":644},{"target":34963,"buffer":0,"byteLength":18,"byteOffset":704},{"target":34962,"buffer":0,"byteLength":60,"byteOffset":724},{"target":34963,"buffer":0,"byteLength":18,"byteOffset":784},{"target":34962,"buffer":0,"byteLength":48,"byteOffset":804},{"target":34963,"buffer":0,"byteLength":12,"byteOffset":852},{"target":34962,"buffer":0,"byteLength":48,"byteOffset":864},{"target":34963,"buffer":0,"byteLength":12,"byteOffset":912},{"target":34962,"buffer":0,"byteLength":120,"byteOffset":924},{"target":34963,"buffer":0,"byteLength":60,"byteOffset":1044},{"target":34962,"buffer":0,"byteLength":96,"byteOffset":1104},{"target":34963,"buffer":0,"byteLength":36,"byteOffset":1200},{"target":34962,"buffer":0,"byteLength":48,"byteOffset":1236},{"target":34963,"buffer":0,"byteLength":12,"byteOffset":1284},{"target":34962,"buffer":0,"byteLength":48,"byteOffset":1296},{"target":34963,"buffer":0,"byteLength":12,"byteOffset":1344},{"target":34962,"buffer":0,"byteLength":48,"byteOffset":1356},{"target":34963,"buffer":0,"byteLength":12,"byteOffset":1404},{"target":34962,"buffer":0,"byteLength":96,"byteOffset":1416},{"target":34963,"buffer":0,"byteLength":36,"byteOffset":1512},{"target":34962,"buffer":0,"byteLength":48,"byteOffset":1548},{"target":34963,"buffer":0,"byteLength":12,"byteOffset":1596},{"target":34962,"buffer":0,"byteLength":48,"byteOffset":1608},{"target":34963,"buffer":0,"byteLength":12,"byteOffset":1656},{"target":34962,"buffer":0,"byteLength":48,"byteOffset":1668},{"target":34963,"buffer":0,"byteLength":12,"byteOffset":1716},{"target":34962,"buffer":0,"byteLength":48,"byteOffset":1728},{"target":34963,"buffer":0,"byteLength":12,"byteOffset":1776},{"target":34962,"buffer":0,"byteLength":96,"byteOffset":1788},{"target":34963,"buffer":0,"byteLength":36,"byteOffset":1884},{"target":34962,"buffer":0,"byteLength":48,"byteOffset":1920},{"target":34963,"buffer":0,"byteLength":12,"byteOffset":1968},{"target":34962,"buffer":0,"byteLength":108,"byteOffset":1980},{"target":34963,"buffer":0,"byteLength":42,"byteOffset":2088},{"target":34962,"buffer":0,"byteLength":48,"byteOffset":2132},{"target":34963,"buffer":0,"byteLength":12,"byteOffset":2180}],"buffers":[{"byteLength":2192,"uri":"data:application/octet-stream;base64,"}]}